<?xml version="1.0" encoding="UTF-8" standalone="no"?>
<!-- Created with Inkscape (http://www.inkscape.org/) -->

<svg
   xmlns:dc="http://purl.org/dc/elements/1.1/"
   xmlns:cc="http://creativecommons.org/ns#"
   xmlns:rdf="http://www.w3.org/1999/02/22-rdf-syntax-ns#"
   xmlns:svg="http://www.w3.org/2000/svg"
   xmlns="http://www.w3.org/2000/svg"
   xmlns:sodipodi="http://sodipodi.sourceforge.net/DTD/sodipodi-0.dtd"
   xmlns:inkscape="http://www.inkscape.org/namespaces/inkscape"
   width="28"
   height="28"
   viewBox="0 0 7.4083333 7.4083335"
   version="1.1"
   id="svg843"
   inkscape:version="0.92.5 (2060ec1f9f, 2020-04-08)"
   sodipodi:docname="icon.svg">
  <defs
     id="defs837" />
  <sodipodi:namedview
     id="base"
     pagecolor="#ffffff"
     bordercolor="#666666"
     borderopacity="1.0"
     inkscape:pageopacity="0.0"
     inkscape:pageshadow="2"
     inkscape:zoom="20.48"
     inkscape:cx="12.943481"
     inkscape:cy="17.32583"
     inkscape:document-units="mm"
     inkscape:current-layer="layer1"
     showgrid="false"
     units="px"
     inkscape:window-width="1920"
     inkscape:window-height="1043"
     inkscape:window-x="1920"
     inkscape:window-y="0"
     inkscape:window-maximized="1" />
  <metadata
     id="metadata840">
    <rdf:RDF>
      <cc:Work
         rdf:about="">
        <dc:format>image/svg+xml</dc:format>
        <dc:type
           rdf:resource="http://purl.org/dc/dcmitype/StillImage" />
        <dc:title></dc:title>
      </cc:Work>
    </rdf:RDF>
  </metadata>
  <g
     inkscape:label="Camada 1"
     inkscape:groupmode="layer"
     id="layer1"
     transform="translate(0,-289.59165)">
    <path
       d="m 3.7014406,289.5977 c -2.0476531,0 -3.70770668,1.65706 -3.70770668,3.70102 0,2.04396 1.66005358,3.70091 3.70770668,3.70091 2.0476529,0 3.7075911,-1.65695 3.7075911,-3.70091 0,-2.04396 -1.6599382,-3.70102 -3.7075911,-3.70102 z"
       id="Path"
       inkscape:connector-curvature="0"
       style="fill:#f51344;fill-rule:evenodd;stroke:none;stroke-width:0.26691264" />
    <path
       d="m 5.7740885,294.52921 c 0,0.17488 -0.1464007,0.31527 -0.3234407,0.30596 -0.1659823,-0.009 -0.2903828,-0.15741 -0.2903828,-0.32332 v -0.67676 c 0,-0.12705 -0.1032063,-0.22996 -0.2303709,-0.22996 H 4.2387809 c -0.1272799,0 -0.230371,0.10291 -0.230371,0.22996 v 0.92407 c 0,0.17489 -0.1465158,0.31527 -0.323556,0.30596 -0.1658673,-0.009 -0.2902675,-0.1574 -0.2902675,-0.32332 v -0.90671 c 0,-0.12705 -0.1033214,-0.22996 -0.2303713,-0.22996 h -0.691113 c -0.1273952,0 -0.230371,0.10291 -0.230371,0.22996 v 0.69412 c 0,0.17488 -0.1465159,0.31527 -0.3235562,0.30596 -0.1659823,-0.009 -0.2903826,-0.15741 -0.2903826,-0.32332 v -2.44362 c 0,-0.17465 0.1464007,-0.31527 0.3233257,-0.30596 0.1660975,0.009 0.2906131,0.1574 0.2906131,0.32332 v 0.67676 c 0,0.12705 0.1029758,0.22995 0.230371,0.22995 h 0.691113 c 0.1270499,0 0.2303713,-0.1029 0.2303713,-0.22995 v -0.92408 c 0,-0.17465 0.1462855,-0.31527 0.3233257,-0.30596 0.1659823,0.009 0.2904978,0.15741 0.2904978,0.32332 v 0.90672 c 0,0.12705 0.1030911,0.22995 0.230371,0.22995 h 0.6911132 c 0.1271646,0 0.2303709,-0.1029 0.2303709,-0.22995 v -0.67676 c 0,-0.16592 0.1244005,-0.31469 0.2903828,-0.32332 0.17704,-0.009 0.3234407,0.13131 0.3234407,0.30596 z"
       id="path16"
       inkscape:connector-curvature="0"
       style="fill:#ffffff;fill-rule:evenodd;stroke:none;stroke-width:0.26691264" />
  </g>
</svg>
